<svg width="28" height="28" viewBox="0 0 28 28" fill="none" xmlns="http://www.w3.org/2000/svg">
<g filter="url(#filter0_d_64_41)">
<path d="M21.0711 12.9289C19.9819 11.8398 18.6855 11.0335 17.2711 10.5454C18.786 9.50199 19.7812 7.75578 19.7812 5.78125C19.7812 2.59348 17.1878 0 14 0C10.8122 0 8.21875 2.59348 8.21875 5.78125C8.21875 7.75578 9.21402 9.50199 10.729 10.5454C9.31453 11.0335 8.01813 11.8398 6.92895 12.9289C5.0402 14.8177 4 17.3289 4 20H5.5625C5.5625 15.3475 9.34754 11.5625 14 11.5625C18.6525 11.5625 22.4375 15.3475 22.4375 20H24C24 17.3289 22.9598 14.8177 21.0711 12.9289ZM14 10C11.6738 10 9.78125 8.1075 9.78125 5.78125C9.78125 3.455 11.6738 1.5625 14 1.5625C16.3262 1.5625 18.2188 3.455 18.2188 5.78125C18.2188 8.1075 16.3262 10 14 10Z" fill="#E0E0E0"/>
</g>
<defs>
<filter id="filter0_d_64_41" x="0" y="0" width="28" height="28" filterUnits="userSpaceOnUse" color-interpolation-filters="sRGB">
<feFlood flood-opacity="0" result="BackgroundImageFix"/>
<feColorMatrix in="SourceAlpha" type="matrix" values="0 0 0 0 0 0 0 0 0 0 0 0 0 0 0 0 0 0 127 0" result="hardAlpha"/>
<feOffset dy="4"/>
<feGaussianBlur stdDeviation="2"/>
<feComposite in2="hardAlpha" operator="out"/>
<feColorMatrix type="matrix" values="0 0 0 0 0 0 0 0 0 0 0 0 0 0 0 0 0 0 0.25 0"/>
<feBlend mode="normal" in2="BackgroundImageFix" result="effect1_dropShadow_64_41"/>
<feBlend mode="normal" in="SourceGraphic" in2="effect1_dropShadow_64_41" result="shape"/>
</filter>
</defs>
</svg>
